<svg width="689" height="1265" viewBox="0 0 689 1265" fill="none" xmlns="http://www.w3.org/2000/svg">
<path d="M242.894 655.653C277.567 594.593 317.235 535.147 342.848 470.444C355.422 438.196 363.855 404.341 363.082 370.888C362.777 354.104 360.133 337.632 355.237 321.779C352.802 313.782 349.877 306.134 346.373 298.529C344.621 294.727 342.844 291.066 340.928 287.38L337.904 281.897L336.392 279.155L335.624 277.855L335.17 277.193L334.944 276.862L334.83 276.696C335.839 279.057 333.418 273.39 333.595 274.004L333.62 273.863L334.085 273.654L334.06 273.795C333.027 271.575 335.384 276.794 335.182 276.322L335.295 276.487L335.522 276.819L335.976 277.481L336.883 278.806L338.671 281.596L342.111 287.153C344.303 290.888 346.47 294.764 348.335 298.732C352.229 306.552 355.633 314.721 358.434 323.073C364.034 339.779 367.032 357.478 367.275 375.415C367.875 411.455 357.908 447.511 343.512 481.181C357.046 453.177 369.019 424.315 375.82 393.225C378.538 380.323 380.45 367.132 381.117 353.721C381.426 347.957 381.068 341.929 381.515 336.189C389.618 391.891 371.316 445.962 346.402 491.441C340.236 502.859 333.567 513.896 326.76 524.908C334.259 514.019 341.897 503.153 349.396 492.264C352.675 487.463 355.915 482.073 359.584 477.487C343.854 510.629 323.907 540.987 302.94 569.854C288.028 590.339 272.638 610.304 258.481 631.359C253.055 639.416 247.88 647.663 242.843 655.935C242.869 655.794 242.894 655.653 242.894 655.653Z" fill="white" fill-opacity="0.7"/>
<path d="M361.953 711.112C372.936 699.095 388.527 691.678 404.602 691.184C420.702 690.549 436.293 696.807 449.233 705.941C475.665 724.306 490.024 758.423 485.174 790.586C479.078 822.529 458.563 850.458 432.605 868.838C406.231 887.144 374.969 895.999 343.917 901.255C281.422 911.552 217.922 909.013 155.567 919.335C124.653 924.615 93.4404 933.188 66.8906 950.881C40.2524 968.268 21.0329 996.135 11.6023 1026.76C10.2979 1030.89 9.25711 1034.34 9.25711 1034.34C9.25711 1034.34 10.2729 1031.03 11.6023 1026.76C21.0329 996.135 40.114 968.243 66.7772 950.716C93.2137 932.857 124.451 924.143 155.503 918.887C217.859 908.566 281.384 910.963 343.765 900.501C374.679 895.221 405.966 886.224 432.038 868.01C457.807 849.887 478.046 821.909 483.903 790.506C488.54 758.742 474.358 725.238 448.29 707.228C435.439 698.401 420.125 692.192 404.44 692.901C388.78 693.468 373.516 700.652 362.999 712.461C360.02 715.57 357.948 718.403 357.444 718.022C357.242 717.55 358.812 714.337 361.953 711.112Z" fill="white" fill-opacity="0.7"/>
<path d="M385.056 746.635C389.678 739.89 400.583 738.77 407.682 743.812C415.158 748.339 419.973 758.214 418.196 768.227C416.381 777.652 410.389 786.482 401.513 791.454C392.914 796.474 381.229 797.165 371.967 793.049C354.325 786.281 343.402 768.195 343.538 751.343C343.584 734.185 352.54 719.916 362.909 710.554C365.787 708.01 368.213 706.404 368.213 706.404L368.326 706.569C368.326 706.569 366.215 708.813 363.866 711.597C355.397 722.315 349.537 736.841 351.059 750.786C352.582 764.732 361.928 778.029 375.681 783.379C389.951 789.839 406.836 780.76 410.496 766.57C412.364 760.064 410.017 752.374 404.667 747.933C399.506 743.234 391.379 742.374 385.899 747.512C383.185 749.94 382.219 752.969 382.08 752.945C382.219 752.969 382.656 749.701 385.056 746.635ZM408.907 748.976C411.703 752.527 413.733 757.979 413.261 763.86C412.201 773.856 405.354 782.679 396.905 786.853C388.267 791.286 377.99 790.48 369.583 786.37C352.343 778.947 341.051 755.703 347.863 735.817C349.883 730.065 352.569 724.577 355.673 720.763C356.64 719.335 357.67 718.354 358.726 717.232C357.834 718.237 356.665 719.194 355.723 720.481C352.619 724.295 349.844 729.476 347.661 735.345C340.107 755.39 351.578 780.847 370.994 788.075C390.172 797.443 411.82 783.244 413.714 764.523C414.25 759.089 412.522 753.545 409.524 749.522C408.667 747.915 405.445 745.161 405.306 745.137C405.331 744.996 407.887 747.486 408.907 748.976Z" fill="white" fill-opacity="0.7"/>
<path fill-rule="evenodd" clip-rule="evenodd" d="M302.538 866.563C302.601 867.01 303.729 862.264 310.244 860.947C316.368 859.415 326.817 868.107 322.915 879.635C321.109 884.988 316.233 889.942 309.92 891.731C303.557 893.803 296.134 892.195 290.281 887.374C278.008 878.504 275.196 857.347 286.982 844.017C297.435 830.16 317.958 823.909 334.619 831.375C351.33 838.559 363.924 854.469 367.802 872.033C371.818 889.621 367.609 908.514 357.08 921.194C347.256 934.726 334.598 944.119 322.339 949.654C285.637 965.836 243.606 960.561 203.753 956.69C163.648 952.629 122.145 945.992 81.9399 956.17C71.3885 958.517 49.2331 967.533 35.4739 983.132C21.3996 998.092 15.3903 1015.07 15.9438 1015.16C16.8375 1015.76 23.8789 999.405 37.9164 985.456C51.6137 971.011 72.902 962.859 82.9881 960.721C121.886 951.474 162.836 958.013 203.129 961.816C243.007 965.546 285.78 970.663 323.839 953.266C336.589 947.382 349.812 937.217 359.711 923.261C370.667 909.784 374.8 889.714 370.493 871.347C366.187 852.979 352.813 836.64 335.409 829.333C317.779 821.695 296.415 828.67 285.724 843.066C273.535 857.052 276.751 879.154 289.577 888.122C295.431 892.943 303.407 894.649 309.82 892.296C316.321 890.249 321.084 885.129 323.054 879.659C326.892 867.683 316.141 859.084 309.992 860.757C303.704 862.405 302.601 867.01 302.538 866.563Z" fill="white" fill-opacity="0.7"/>
<path d="M86.1231 572.99C89.1039 573.519 91.9573 571.485 92.4963 568.447C93.0353 565.409 91.0559 562.517 88.0752 561.989C85.0944 561.46 82.241 563.494 81.702 566.531C81.1629 569.569 83.1423 572.461 86.1231 572.99Z" fill="white" fill-opacity="0.7"/>
<path d="M348.552 1056.14C349.302 1051.91 346.582 1047.94 342.43 1047.2C338.278 1046.46 334.356 1049.26 333.606 1053.49C332.855 1057.72 335.576 1061.69 339.727 1062.43C343.879 1063.17 347.801 1060.37 348.552 1056.14Z" fill="white" fill-opacity="0.7"/>
<path d="M316.833 872.882C318.276 868.773 316.234 864.192 312.207 862.75C308.18 861.308 303.667 863.417 302.224 867.525C300.781 871.634 302.823 876.215 306.85 877.657C310.99 879.264 315.39 876.99 316.833 872.882Z" fill="white" fill-opacity="0.7"/>
<path d="M348.916 1054.9C348.752 1055.01 348.838 1052.12 346.155 1048.73C343.774 1045.26 337.382 1042.67 331.221 1045.21C323.714 1048.1 318.539 1056.34 319.654 1064.54C320.517 1072.55 325.618 1080 332.641 1083.87C347.189 1091.98 365.848 1083.36 374.1 1069.84C383.282 1055.9 380.434 1037.36 371.969 1023.93C363.415 1010.19 348.488 1000.99 332.575 999.77C300.46 998.145 269.437 1021.74 260.46 1053.02C251.018 1084.52 263.151 1119.11 284.054 1142.9C305.347 1166.9 337.649 1180.34 369.521 1177.7C401.28 1174.9 431.959 1161.28 455.927 1139.64C480.008 1118.16 497.05 1088.89 503.951 1057.24C511.431 1025.54 506.934 992.155 496.642 961.669C476.458 900.041 427.568 849.759 367.848 827.524C338.177 816.149 305.795 812.004 274.15 814.972C242.454 818.222 211.242 826.795 182.071 839.95C123.617 866.094 73.6211 911.341 40.7545 967.047C7.74944 1022.73 -7.68593 1088.8 -2.70748 1153.26C-1.1923 1172.88 -1.2261 1177.09 -1.91805 1176.97C-2.35824 1177.04 -2.66004 1177.13 -3.23862 1177.17C-3.59047 1177.54 -5.75764 1173.67 -7.49955 1153.72C-12.4162 1088.11 3.58449 1021.26 37.1298 964.949C70.6752 908.636 121.438 863.088 180.635 836.785C210.22 823.705 241.735 815.039 273.845 811.863C306.044 808.993 338.816 813.353 368.877 824.943C429.377 847.607 478.671 898.834 498.893 961.051C509.11 991.96 513.695 1025.65 505.977 1057.89C498.862 1089.94 481.468 1119.59 457.06 1141.3C432.791 1163.03 401.646 1176.85 369.497 1179.44C337.235 1181.87 304.404 1168.18 283.023 1143.88C262.032 1119.79 249.81 1084.88 259.466 1052.99C268.657 1021.31 300.119 997.648 332.65 999.346C348.701 1000.59 363.88 1009.98 372.409 1023.86C381.013 1037.31 383.785 1056.28 374.44 1070.34C366.025 1083.97 347.227 1092.57 332.566 1084.29C325.543 1080.43 320.442 1072.98 319.604 1064.83C318.489 1056.63 323.689 1048.24 331.334 1045.38C337.495 1042.83 343.888 1045.42 346.268 1048.9C348.699 1052.09 348.752 1055.01 348.916 1054.9Z" fill="white" fill-opacity="0.7"/>
<path d="M500.78 544.148C504.093 535.134 504.989 525.255 503.823 515.737C501.632 499.927 493.177 484.025 479.195 476.743C465.238 469.32 446.85 471.585 435.099 482.303C423.096 492.83 423.192 514.814 436.383 524.138C442.841 528.775 452.048 528.372 458.333 523.523C465.121 519.053 465.778 508.113 459.886 502.704C456.323 499.453 449.845 499.758 446.855 503.737C443.337 507.478 446.929 515.389 452.16 513.262C453.92 512.993 455.276 510.178 453.916 508.191C452.556 506.204 450.431 507.718 450.595 507.602C450.431 507.718 452.417 506.179 454.079 508.074C455.603 509.945 454.172 513.183 452.273 513.428C446.552 515.904 442.645 507.355 446.377 503.216C449.58 498.838 456.36 498.441 460.451 501.931C466.846 507.721 466.367 519.274 459.176 524.4C452.54 529.623 442.59 530.186 435.605 525.309C421.218 515.482 420.794 492.13 433.714 480.457C446.055 468.826 465.512 466.168 480.501 474.21C495.653 482.136 504.122 498.769 506.187 515.284C507.278 525.224 506.055 535.336 502.139 544.534C501.173 547.564 496.702 555.063 496.337 554.707C496.174 554.823 500.091 547.226 500.78 544.148Z" fill="white" fill-opacity="0.7"/>
<path d="M538.29 476.754C538.152 476.729 538.152 476.729 538.152 476.729C536.795 477.943 535.412 479.298 534.193 480.537L539.832 470.481L526.075 489.28C524.806 490.801 523.537 492.321 522.407 493.866L532.459 454.915L517.863 491.314L519.633 459.623L515.215 483.716C515.137 480.938 515.034 478.301 514.679 475.474C514.54 475.449 514.54 475.449 514.54 475.449C514.57 480.11 514.461 484.746 514.214 489.358L511.773 502.309C510.417 491.448 505.928 479.74 504.018 468.782C501.666 454.689 506.724 443.075 520.716 434.21C524.424 431.813 527.881 429.226 531.59 426.829C533.526 425.572 535.398 423.868 538.253 423.065C541.403 429.443 544.001 435.723 547.013 442.077C554.046 457.146 552.095 469.747 542.52 480.269C537.217 486.02 530.719 491.268 524.888 496.78L532.397 483.419C534.206 481.267 536.179 478.998 538.29 476.754Z" fill="white" fill-opacity="0.7"/>
<path d="M530.177 503.974C530.177 503.974 530.29 504.14 530.177 503.974C529.813 505.219 529.336 506.298 528.859 507.377L533.722 501.693L525.369 514.177C524.753 515.232 524.113 516.428 523.359 517.458L544.503 502.879L525.802 519.782L544.36 511.728L530.821 519.655C532.493 519.078 534.14 518.643 535.788 518.208C535.788 518.208 535.788 518.208 535.901 518.374C533.021 519.318 530.255 520.427 527.627 521.561L520.449 525.816C527.29 524.265 535.24 524.512 542.17 523.269C551.137 521.805 557.019 516.011 559.311 505.506C559.95 502.71 560.727 499.938 561.366 497.142C561.78 495.615 562.307 494.254 562.242 492.206C557.788 491.561 553.398 491.364 549.058 490.885C538.529 489.889 531.425 493.721 527.244 501.999C525.009 506.549 523.253 511.62 521.107 516.476L527.59 508.898C528.281 507.42 529.298 505.709 530.177 503.974Z" fill="white" fill-opacity="0.7"/>
<path d="M110.769 388.238L110.907 388.263C111.384 387.184 111.886 385.963 112.363 384.884L111.565 392.599L115.148 377.232C115.537 375.846 115.901 374.601 116.126 373.331L120.226 400.1L119.636 373.663L126.787 393.699L123.212 377.644C123.93 379.226 124.762 380.974 125.619 382.581L125.757 382.605C124.409 379.748 123.362 376.798 122.29 373.989L120.395 365.36C124.124 371.696 129.916 377.67 133.947 383.913C139.225 391.978 138.994 400.521 132.764 409.89C131.043 412.348 129.599 414.856 127.991 417.481C127.049 418.768 126.497 420.271 124.838 421.576C121.086 418.583 117.939 415.406 114.489 412.321C106.243 404.893 103.997 396.638 107.196 387.459C108.927 382.529 111.538 377.464 113.71 372.466L112.6 382.744C112.023 384.387 111.396 386.313 110.769 388.238Z" fill="white" fill-opacity="0.7"/>
<path d="M90.1498 358.83C90.2882 358.854 90.2882 358.854 90.1498 358.83C91.2819 358.885 92.3007 358.775 93.1811 358.64L87.3467 360.951L99.6206 357.746C100.664 357.495 101.708 357.244 102.752 356.992L85.1414 370.161L103.849 359.66L92.2758 372.591L102.406 363.769C101.489 364.915 100.685 366.227 99.8813 367.539C99.8813 367.539 99.8813 367.539 100.02 367.564C101.666 365.528 103.286 363.634 104.907 361.739L110.312 357.024C107.122 362.132 105.09 368.755 102.127 374.194C98.3342 381.086 92.2112 384.218 83.1158 383.186C80.7382 382.91 78.3355 382.774 75.9579 382.498C74.6873 382.418 73.3918 382.479 71.8062 381.761C72.6453 377.837 73.7112 374.243 74.6636 370.484C76.8188 361.556 81.9465 356.792 89.7066 355.696C93.9451 355.139 98.5237 355.078 102.851 354.828L95.0169 357.948C93.3946 358.242 91.7722 358.536 90.1498 358.83Z" fill="white" fill-opacity="0.7"/>
<path d="M379.638 1168.15C394.555 1166.14 402.727 1161.92 406.724 1158.7C410.859 1155.5 411.26 1153.25 410.591 1151.38C409.368 1147.82 404.511 1146.23 413.123 1141.94C421.006 1136.94 437.424 1140.14 463.981 1116.78C476.486 1105.03 491.009 1085.93 499.736 1056.05C508.15 1027.14 511.544 984.681 489.643 942.388C494.996 950.03 502.342 964.136 506.537 983.938C510.756 1003.6 511.661 1029.07 505.145 1056.14C498.956 1082.97 485.436 1111.71 463.192 1134.09C441.591 1156.88 409.189 1171.36 379.638 1168.15Z" fill="white" fill-opacity="0.7"/>
<path d="M0.742492 1089.57C7.02418 1067.84 27.0948 1048.86 51.5454 1046.21C63.3806 1044.68 75.8872 1048.2 85.4921 1056.02C95.122 1063.69 101.687 1075.77 102.743 1088.32C103.823 1100.73 97.9611 1113.66 87.4142 1120.81C77.094 1128.29 62.8311 1129.83 52.6226 1122.2C42.5908 1115.18 37.4319 1100.01 43.9125 1089.23C47.0144 1083.81 52.4321 1079.83 58.5065 1078.58C64.3041 1077.28 70.7716 1079.45 74.7761 1084.23C78.7806 1089.02 80.2588 1095.97 77.2953 1101.41C74.6086 1106.9 67.5552 1110.45 61.9181 1108.43C56.0924 1106.67 52.2233 1098.71 55.9288 1093.11C57.6749 1090.51 60.8931 1088.46 64.1261 1088.74C67.3842 1088.88 70.3301 1091.59 71.025 1094.91C70.3801 1091.31 67.4592 1088.46 64.2513 1088.04C61.0683 1087.47 57.7867 1089.07 55.839 1091.2C51.4784 1095.66 52.428 1102.38 55.3122 1106.24C61.3955 1114.59 71.0915 1112.24 75.2652 1109.63C80.0676 1106.7 81.9388 1103.4 83.2829 1101.45C84.5136 1099.34 85.0789 1098.57 85.5441 1098.36C86.613 1097.97 86.9428 1100.94 87.7849 1100.21C88.1368 1099.84 88.9406 1098.53 89.2394 1095.24C89.3998 1091.92 89.1936 1086.64 85.3761 1080C81.3951 1073.48 74.296 1068.43 65.4523 1067.59C56.5836 1066.89 46.9391 1070.56 39.8902 1078.91C32.8914 1086.98 29.9236 1101.3 36.3 1113.63C41.821 1125.96 57.2397 1136.4 74.5191 1132.34C82.9829 1130.5 91.4187 1125.59 97.6505 1117.82C103.882 1110.05 107.633 1099.37 106.629 1088.14C105.625 1076.9 100.281 1065.19 90.9893 1056.41C81.698 1047.63 68.2963 1041.91 53.8067 1043.12C39.3421 1044.19 24.1032 1051.24 12.9071 1063.65C1.57265 1076.04 -5.51733 1094.28 -3.65029 1113.52L0.742492 1089.57Z" fill="white" fill-opacity="0.7"/>
<path d="M238.543 657.645C238.934 657.86 239.274 658.357 239.035 658.896C238.822 659.295 238.331 659.644 237.803 659.405C237.413 659.19 237.073 658.694 237.311 658.154C237.55 657.614 238.153 657.43 238.543 657.645Z" fill="white" fill-opacity="0.7"/>
<path d="M239.836 654.383C240.226 654.598 240.566 655.094 240.353 655.493C240.139 655.892 239.649 656.241 239.12 656.002C238.73 655.787 238.39 655.29 238.604 654.892C238.817 654.493 239.307 654.144 239.836 654.383Z" fill="white" fill-opacity="0.7"/>
<path d="M240.852 651.072C241.267 651.145 241.607 651.642 241.507 652.206C241.294 652.605 240.803 652.954 240.388 652.881C239.973 652.807 239.658 652.169 239.733 651.746C239.833 651.182 240.323 650.832 240.852 651.072Z" fill="white" fill-opacity="0.7"/>
<path d="M241.59 647.711C242.006 647.785 242.346 648.282 242.245 648.846C242.17 649.269 241.68 649.618 241.127 649.52C240.573 649.422 240.371 648.95 240.471 648.386C240.71 647.846 241.2 647.497 241.59 647.711Z" fill="white" fill-opacity="0.7"/>
<path d="M241.211 645.025C241.286 644.602 241.776 644.253 242.192 644.326C242.745 644.425 243.085 644.921 243.01 645.344C242.91 645.909 242.445 646.117 242.03 646.043C241.476 645.945 241.136 645.448 241.211 645.025Z" fill="white" fill-opacity="0.7"/>
<path d="M241.673 641.616C241.748 641.193 242.238 640.843 242.678 640.776C243.093 640.849 243.597 641.23 243.497 641.794C243.422 642.217 243.045 642.732 242.491 642.634C241.938 642.536 241.598 642.039 241.673 641.616Z" fill="white" fill-opacity="0.7"/>
<path d="M241.997 638.182C241.934 637.734 242.449 637.244 242.864 637.317C243.304 637.25 243.783 637.771 243.683 638.335C243.608 638.758 243.231 639.273 242.677 639.175C242.262 639.102 241.922 638.605 241.997 638.182Z" fill="white" fill-opacity="0.7"/>
<path d="M241.906 634.674C241.843 634.226 242.219 633.711 242.798 633.668C243.238 633.601 243.742 633.981 243.78 634.57C243.843 635.018 243.328 635.508 242.888 635.576C242.309 635.618 241.944 635.263 241.906 634.674Z" fill="white" fill-opacity="0.7"/>
<path d="M241.789 631.307C241.726 630.86 242.103 630.345 242.681 630.302C243.122 630.234 243.625 630.615 243.688 631.062C243.752 631.51 243.375 632.025 242.796 632.068C242.218 632.111 241.853 631.755 241.789 631.307Z" fill="white" fill-opacity="0.7"/>
<path d="M242.403 628.652C241.963 628.719 241.46 628.339 241.396 627.891C241.333 627.444 241.71 626.929 242.15 626.861C242.59 626.794 243.119 627.033 243.157 627.622C243.22 628.07 242.843 628.585 242.403 628.652Z" fill="white" fill-opacity="0.7"/>
<path d="M241.871 625.212C241.431 625.279 240.903 625.04 240.839 624.592C240.776 624.144 241.015 623.605 241.455 623.537C241.895 623.47 242.423 623.709 242.487 624.157C242.688 624.629 242.312 625.144 241.871 625.212Z" fill="white" fill-opacity="0.7"/>
<path d="M239.868 621.219C239.804 620.771 240.043 620.232 240.483 620.164C240.923 620.097 241.452 620.336 241.654 620.809C241.855 621.281 241.478 621.796 241.038 621.863C240.598 621.931 240.069 621.691 239.868 621.219Z" fill="white" fill-opacity="0.7"/>
<path d="M240.067 618.49C239.601 618.699 239.073 618.459 238.871 617.987C238.67 617.515 238.908 616.975 239.373 616.767C239.838 616.559 240.367 616.798 240.569 617.27C240.77 617.742 240.532 618.282 240.067 618.49Z" fill="white" fill-opacity="0.7"/>
<path d="M238.931 615.234C238.466 615.442 237.937 615.203 237.735 614.731C237.534 614.258 237.772 613.719 238.238 613.51C238.703 613.302 239.231 613.541 239.433 614.013C239.496 614.461 239.396 615.025 238.931 615.234Z" fill="white" fill-opacity="0.7"/>
<path d="M237.495 612.069C237.029 612.278 236.476 612.179 236.274 611.707C236.072 611.235 236.311 610.695 236.638 610.462C237.103 610.254 237.656 610.352 237.858 610.824C238.06 611.297 237.96 611.861 237.495 612.069Z" fill="white" fill-opacity="0.7"/>
<path d="M235.919 608.88C235.454 609.088 234.901 608.99 234.699 608.518C234.497 608.046 234.597 607.482 235.063 607.273C235.528 607.065 236.081 607.163 236.283 607.635C236.485 608.107 236.385 608.672 235.919 608.88Z" fill="white" fill-opacity="0.7"/>
<path d="M234.155 605.948C233.69 606.157 233.136 606.059 232.91 605.727C232.683 605.396 232.783 604.832 233.135 604.458C233.487 604.084 234.179 604.207 234.38 604.679C234.72 605.176 234.482 605.715 234.155 605.948Z" fill="white" fill-opacity="0.7"/>
<path d="M232.228 603.133C231.738 603.483 231.185 603.385 230.958 603.053C230.593 602.698 230.693 602.134 231.183 601.784C231.535 601.41 232.089 601.508 232.454 601.864C232.819 602.22 232.58 602.759 232.228 603.133Z" fill="white" fill-opacity="0.7"/>
<path d="M229.999 600.41C229.647 600.784 229.094 600.686 228.729 600.33C228.363 599.974 228.464 599.41 228.815 599.036C229.167 598.662 229.721 598.76 230.086 599.116C230.451 599.472 230.489 600.061 229.999 600.41Z" fill="white" fill-opacity="0.7"/>
<path d="M227.746 597.828C227.394 598.202 226.815 598.245 226.45 597.889C226.085 597.533 226.047 596.945 226.398 596.571C226.75 596.197 227.329 596.154 227.694 596.51C228.059 596.865 228.097 597.454 227.746 597.828Z" fill="white" fill-opacity="0.7"/>
<path d="M225.328 595.362C224.976 595.736 224.397 595.779 224.032 595.423C223.667 595.068 223.629 594.479 223.981 594.105C224.333 593.731 224.911 593.688 225.276 594.044C225.641 594.4 225.68 594.988 225.328 595.362Z" fill="white" fill-opacity="0.7"/>
<path d="M222.722 593.154C222.37 593.528 221.792 593.571 221.401 593.356C221.036 593.001 220.998 592.412 221.212 592.013C221.563 591.639 222.142 591.596 222.532 591.811C222.897 592.167 223.074 592.78 222.722 593.154Z" fill="white" fill-opacity="0.7"/>
<path d="M219.952 591.062C219.739 591.461 219.135 591.645 218.77 591.289C218.38 591.074 218.342 590.486 218.555 590.087C218.769 589.689 219.372 589.505 219.738 589.86C220.128 590.075 220.304 590.688 219.952 591.062Z" fill="white" fill-opacity="0.7"/>
<path d="M217.158 589.112C216.945 589.51 216.341 589.694 215.951 589.48C215.561 589.265 215.384 588.652 215.598 588.253C215.811 587.854 216.415 587.671 216.805 587.885C217.195 588.1 217.372 588.713 217.158 589.112Z" fill="white" fill-opacity="0.7"/>
<path d="M212.968 587.786C212.578 587.572 212.376 587.1 212.615 586.56C212.828 586.161 213.432 585.978 213.822 586.192C214.212 586.407 214.389 587.02 214.176 587.419C213.962 587.817 213.358 588.001 212.968 587.786Z" fill="white" fill-opacity="0.7"/>
<path d="M209.935 586.375C209.545 586.161 209.344 585.688 209.444 585.124C209.657 584.726 210.147 584.376 210.676 584.616C211.066 584.83 211.406 585.327 211.168 585.867C210.929 586.406 210.326 586.59 209.935 586.375Z" fill="white" fill-opacity="0.7"/>
<path d="M206.715 585.222C206.3 585.148 205.984 584.51 206.06 584.087C206.273 583.689 206.763 583.339 207.178 583.413C207.707 583.652 207.909 584.125 207.695 584.523C207.734 585.112 207.268 585.32 206.715 585.222Z" fill="white" fill-opacity="0.7"/>
<path d="M203.468 584.209C203.053 584.136 202.713 583.639 202.813 583.075C202.913 582.511 203.378 582.302 203.932 582.401C204.485 582.499 204.687 582.971 204.587 583.535C204.487 584.099 204.021 584.308 203.468 584.209Z" fill="white" fill-opacity="0.7"/>
<path d="M200.31 583.504C199.895 583.43 199.555 582.933 199.63 582.51C199.705 582.087 200.195 581.738 200.635 581.67C201.05 581.744 201.39 582.241 201.315 582.664C201.215 583.228 200.725 583.577 200.31 583.504Z" fill="white" fill-opacity="0.7"/>
<path d="M196.939 583.196C196.524 583.123 196.159 582.767 196.12 582.178C196.22 581.614 196.572 581.24 197.126 581.338C197.679 581.437 198.044 581.792 197.944 582.357C197.869 582.78 197.379 583.129 196.939 583.196Z" fill="white" fill-opacity="0.7"/>
<path d="M193.542 583.03C193.102 583.098 192.624 582.576 192.699 582.153C192.635 581.705 193.151 581.215 193.566 581.289C194.006 581.221 194.484 581.743 194.409 582.166C194.473 582.613 194.121 582.987 193.542 583.03Z" fill="white" fill-opacity="0.7"/>
<path d="M190.234 583.171C189.794 583.238 189.291 582.858 189.252 582.269C189.189 581.821 189.566 581.306 190.144 581.263C190.585 581.196 191.088 581.576 191.126 582.165C191.051 582.588 190.674 583.103 190.234 583.171Z" fill="white" fill-opacity="0.7"/>
<path d="M186.901 583.452C186.461 583.519 185.957 583.139 185.894 582.692C185.831 582.244 186.208 581.729 186.648 581.661C187.088 581.594 187.591 581.974 187.655 582.422C187.693 583.011 187.341 583.385 186.901 583.452Z" fill="white" fill-opacity="0.7"/>
<path d="M183.631 584.181C183.191 584.249 182.663 584.009 182.599 583.562C182.536 583.114 182.775 582.574 183.215 582.507C183.655 582.44 184.184 582.679 184.247 583.127C184.31 583.574 184.072 584.114 183.631 584.181Z" fill="white" fill-opacity="0.7"/>
<path d="M180.337 585.051C179.871 585.26 179.343 585.021 179.305 584.432C179.103 583.96 179.341 583.42 179.945 583.236C180.41 583.028 180.914 583.408 181.115 583.88C181.015 584.444 180.802 584.843 180.337 585.051Z" fill="white" fill-opacity="0.7"/>
<path d="M177.269 586.253C176.804 586.461 176.275 586.222 176.073 585.75C175.872 585.278 176.11 584.738 176.575 584.53C177.041 584.321 177.569 584.56 177.771 585.033C177.834 585.48 177.596 586.02 177.269 586.253Z" fill="white" fill-opacity="0.7"/>
<path d="M174.15 587.736C173.685 587.945 173.157 587.705 172.93 587.374C172.728 586.902 172.828 586.338 173.293 586.129C173.759 585.921 174.312 586.019 174.514 586.491C174.716 586.964 174.477 587.503 174.15 587.736Z" fill="white" fill-opacity="0.7"/>
<path d="M171.145 589.385C170.68 589.594 170.127 589.496 169.925 589.023C169.723 588.551 169.823 587.987 170.289 587.778C170.754 587.57 171.307 587.668 171.509 588.141C171.736 588.472 171.636 589.036 171.145 589.385Z" fill="white" fill-opacity="0.7"/>
<path d="M168.392 591.224C168.065 591.457 167.512 591.359 167.147 591.003C166.782 590.648 166.882 590.084 167.372 589.734C167.862 589.385 168.416 589.483 168.618 589.955C168.819 590.427 168.719 590.991 168.392 591.224Z" fill="white" fill-opacity="0.7"/>
<path d="M165.728 593.37C165.376 593.744 164.823 593.646 164.458 593.29C164.092 592.935 164.193 592.37 164.544 591.996C164.896 591.622 165.45 591.721 165.815 592.076C166.18 592.432 166.08 592.996 165.728 593.37Z" fill="white" fill-opacity="0.7"/>
<path d="M163.176 595.682C162.824 596.056 162.271 595.957 161.906 595.602C161.541 595.246 161.502 594.657 161.993 594.308C162.344 593.934 162.898 594.032 163.263 594.388C163.628 594.744 163.666 595.332 163.176 595.682Z" fill="white" fill-opacity="0.7"/>
<path d="M160.877 598.183C160.525 598.557 159.946 598.6 159.581 598.244C159.216 597.889 159.178 597.3 159.53 596.926C159.882 596.552 160.46 596.509 160.825 596.865C161.19 597.221 161.229 597.809 160.877 598.183Z" fill="white" fill-opacity="0.7"/>
<path d="M158.829 600.875C158.616 601.274 158.012 601.457 157.647 601.102C157.257 600.887 157.105 600.133 157.457 599.759C157.67 599.36 158.387 599.342 158.777 599.557C159.168 599.771 159.181 600.501 158.829 600.875Z" fill="white" fill-opacity="0.7"/>
<path d="M157.033 603.757C156.819 604.155 156.216 604.339 155.825 604.125C155.435 603.91 155.259 603.297 155.472 602.898C155.686 602.499 156.289 602.316 156.679 602.53C157.069 602.745 157.271 603.217 157.033 603.757Z" fill="white" fill-opacity="0.7"/>
<path d="M154.168 607.031C153.778 606.816 153.601 606.203 153.815 605.805C154.028 605.406 154.632 605.222 155.022 605.437C155.412 605.652 155.589 606.265 155.375 606.663C155.162 607.062 154.558 607.246 154.168 607.031Z" fill="white" fill-opacity="0.7"/>
<path d="M152.737 610.269C152.347 610.054 152.007 609.557 152.245 609.018C152.459 608.619 152.949 608.269 153.478 608.509C153.868 608.723 154.208 609.22 153.969 609.76C153.731 610.299 153.266 610.508 152.737 610.269Z" fill="white" fill-opacity="0.7"/>
<path d="M151.721 613.58C151.306 613.506 150.966 613.009 151.066 612.445C151.166 611.881 151.77 611.697 152.185 611.771C152.575 611.986 152.915 612.482 152.84 612.906C152.602 613.445 152.111 613.795 151.721 613.58Z" fill="white" fill-opacity="0.7"/>
<path d="M150.957 617.081C150.542 617.008 150.202 616.511 150.277 616.088C150.377 615.524 150.842 615.315 151.396 615.413C151.949 615.512 152.151 615.984 152.076 616.407C151.862 616.806 151.511 617.18 150.957 617.081Z" fill="white" fill-opacity="0.7"/>
<path d="M151.501 619.651C151.425 620.074 151.049 620.589 150.495 620.491C150.08 620.417 149.576 620.037 149.676 619.473C149.776 618.909 150.267 618.559 150.682 618.633C151.235 618.731 151.576 619.228 151.501 619.651Z" fill="white" fill-opacity="0.7"/>
<path d="M151.315 623.11C151.378 623.557 151.002 624.072 150.448 623.974C150.008 624.041 149.504 623.661 149.466 623.072C149.403 622.625 149.918 622.134 150.358 622.067C150.912 622.165 151.415 622.545 151.315 623.11Z" fill="white" fill-opacity="0.7"/>
<path d="M151.57 626.501C151.633 626.948 151.256 627.464 150.816 627.531C150.376 627.598 149.872 627.218 149.809 626.77C149.746 626.323 150.123 625.808 150.563 625.74C151.166 625.556 151.532 625.912 151.57 626.501Z" fill="white" fill-opacity="0.7"/>
<path d="M150.981 629.015C151.421 628.948 151.95 629.187 151.988 629.776C152.051 630.223 151.813 630.763 151.373 630.83C150.932 630.898 150.404 630.658 150.341 630.211C150.302 629.622 150.516 629.223 150.981 629.015Z" fill="white" fill-opacity="0.7"/>
<path d="M152.96 633.149C153.161 633.621 152.923 634.16 152.344 634.203C151.879 634.412 151.35 634.172 151.149 633.7C150.947 633.228 151.324 632.713 151.789 632.504C152.254 632.296 152.783 632.535 152.96 633.149Z" fill="white" fill-opacity="0.7"/>
<path d="M152.924 635.761C153.39 635.553 153.918 635.792 154.12 636.264C154.321 636.736 154.083 637.276 153.618 637.484C153.152 637.693 152.624 637.453 152.422 636.981C152.221 636.509 152.459 635.969 152.924 635.761Z" fill="white" fill-opacity="0.7"/>
<path d="M154.361 638.926C154.826 638.717 155.38 638.815 155.582 639.288C155.783 639.76 155.683 640.324 155.218 640.532C154.753 640.741 154.199 640.643 153.998 640.17C153.633 639.815 153.896 639.134 154.361 638.926Z" fill="white" fill-opacity="0.7"/>
<path d="M155.962 641.974C156.427 641.765 156.981 641.863 157.207 642.195C157.434 642.526 157.334 643.09 156.982 643.464C156.492 643.813 155.938 643.715 155.737 643.243C155.535 642.771 155.635 642.207 155.962 641.974Z" fill="white" fill-opacity="0.7"/>
<path d="M158.228 643.685C158.593 644.041 158.493 644.605 158.002 644.954C157.65 645.328 157.097 645.23 156.732 644.874C156.367 644.519 156.492 643.813 156.957 643.605C157.472 643.114 158.026 643.213 158.228 643.685Z" fill="white" fill-opacity="0.7"/>
<path d="M159.211 646.187C159.563 645.813 160.116 645.911 160.481 646.267C160.847 646.623 160.746 647.187 160.395 647.561C160.043 647.935 159.489 647.837 159.124 647.481C158.759 647.125 158.859 646.561 159.211 646.187Z" fill="white" fill-opacity="0.7"/>
<path d="M161.628 648.653C161.98 648.279 162.559 648.236 162.924 648.592C163.289 648.947 163.327 649.536 162.975 649.91C162.623 650.284 162.045 650.327 161.68 649.971C161.315 649.615 161.276 649.027 161.628 648.653Z" fill="white" fill-opacity="0.7"/>
<path d="M165.417 650.634C165.807 650.849 165.984 651.462 165.632 651.836C165.418 652.235 164.815 652.419 164.311 652.038C163.921 651.824 163.769 651.069 164.121 650.695C164.448 650.462 165.027 650.42 165.417 650.634Z" fill="white" fill-opacity="0.7"/>
<path d="M168.564 653.812C168.35 654.21 167.747 654.394 167.357 654.179C166.967 653.965 166.79 653.351 167.003 652.953C167.217 652.554 167.82 652.37 168.211 652.585C168.601 652.8 168.802 653.272 168.564 653.812Z" fill="white" fill-opacity="0.7"/>
<path d="M171.597 655.223C171.384 655.621 170.893 655.971 170.365 655.731C169.975 655.517 169.634 655.02 169.873 654.48C170.086 654.082 170.552 653.873 171.105 653.971C171.634 654.211 171.81 654.824 171.597 655.223Z" fill="white" fill-opacity="0.7"/>
<path d="M174.956 656.401C174.881 656.824 174.391 657.173 173.838 657.075C173.284 656.977 173.082 656.504 173.182 655.94C173.396 655.542 173.886 655.192 174.301 655.266C174.716 655.34 175.057 655.836 174.956 656.401Z" fill="white" fill-opacity="0.7"/>
<path d="M178.253 657.131C178.178 657.554 177.688 657.903 177.272 657.83C176.719 657.732 176.379 657.235 176.592 656.836C176.692 656.272 177.158 656.064 177.573 656.137C178.013 656.07 178.353 656.567 178.253 657.131Z" fill="white" fill-opacity="0.7"/>
<path d="M181.649 657.297C181.712 657.745 181.197 658.235 180.643 658.137C180.09 658.039 179.725 657.683 179.825 657.119C179.9 656.696 180.277 656.181 180.83 656.279C181.221 656.494 181.724 656.874 181.649 657.297Z" fill="white" fill-opacity="0.7"/>
<path d="M184.089 656.421C184.529 656.353 185.033 656.734 185.096 657.181C185.159 657.629 184.782 658.144 184.342 658.211C183.764 658.254 183.398 657.898 183.36 657.31C183.297 656.862 183.674 656.347 184.089 656.421Z" fill="white" fill-opacity="0.7"/>
<path d="M187.472 655.857C187.912 655.79 188.441 656.029 188.504 656.477C188.567 656.924 188.329 657.464 187.75 657.507C187.31 657.574 186.782 657.335 186.743 656.746C186.655 656.44 186.868 656.041 187.472 655.857Z" fill="white" fill-opacity="0.7"/>
<path d="M190.603 655.103C191.068 654.895 191.572 655.275 191.774 655.748C191.975 656.22 191.737 656.759 191.158 656.802C190.693 657.011 190.164 656.771 189.988 656.158C189.924 655.71 190.163 655.171 190.603 655.103Z" fill="white" fill-opacity="0.7"/>
<path d="M193.697 653.761C194.162 653.553 194.691 653.792 194.917 654.123C195.119 654.595 195.019 655.16 194.554 655.368C194.089 655.576 193.56 655.337 193.358 654.865C193.132 654.534 193.232 653.97 193.697 653.761Z" fill="white" fill-opacity="0.7"/>
<path d="M196.563 652.087C196.889 651.854 197.443 651.953 197.808 652.308C198.01 652.781 197.91 653.345 197.583 653.578C197.093 653.927 196.564 653.688 196.362 653.216C196.111 653.026 196.211 652.461 196.563 652.087Z" fill="white" fill-opacity="0.7"/>
<path d="M199.341 650.107C199.693 649.733 200.246 649.831 200.611 650.187C200.976 650.543 200.876 651.107 200.524 651.481C200.173 651.855 199.619 651.757 199.254 651.401C198.889 651.045 198.989 650.481 199.341 650.107Z" fill="white" fill-opacity="0.7"/>
<path d="M201.729 647.912C202.081 647.538 202.634 647.636 203.024 647.851C203.39 648.207 203.428 648.796 203.076 649.17C202.724 649.544 202.146 649.586 201.78 649.231C201.44 648.734 201.377 648.286 201.729 647.912Z" fill="white" fill-opacity="0.7"/>
<path d="M205.097 645.018C205.487 645.233 205.639 645.987 205.287 646.361C204.935 646.735 204.357 646.778 203.967 646.564C203.601 646.208 203.563 645.619 203.752 645.362C204.128 644.847 204.707 644.804 205.097 645.018Z" fill="white" fill-opacity="0.7"/>
<path d="M207.246 643.363C207.033 643.762 206.429 643.945 206.039 643.731C205.649 643.516 205.472 642.903 205.686 642.504C205.899 642.106 206.503 641.922 206.893 642.136C207.283 642.351 207.485 642.823 207.246 643.363Z" fill="white" fill-opacity="0.7"/>
<path d="M208.324 638.899C208.714 639.114 209.054 639.61 208.816 640.15C208.602 640.549 208.112 640.898 207.584 640.659C207.194 640.444 206.853 639.947 207.092 639.408C207.305 639.009 207.796 638.66 208.324 638.899Z" fill="white" fill-opacity="0.7"/>
<path d="M209.202 635.563C209.617 635.637 209.957 636.134 209.857 636.698C209.757 637.262 209.292 637.47 208.738 637.372C208.185 637.274 207.983 636.802 208.083 636.237C208.183 635.673 208.648 635.465 209.202 635.563Z" fill="white" fill-opacity="0.7"/>
<path d="M208.684 632.852C208.759 632.429 209.11 632.055 209.689 632.013C210.268 631.97 210.608 632.467 210.508 633.031C210.408 633.595 210.056 633.969 209.502 633.871C208.949 633.772 208.583 633.417 208.684 632.852Z" fill="white" fill-opacity="0.7"/>
<path d="M208.68 629.651C208.617 629.204 208.994 628.689 209.434 628.621C209.874 628.554 210.378 628.934 210.441 629.382C210.504 629.83 210.127 630.345 209.549 630.387C209.109 630.455 208.743 630.099 208.68 629.651Z" fill="white" fill-opacity="0.7"/>
<path d="M209.156 626.972C208.716 627.039 208.187 626.8 208.124 626.352C208.06 625.904 208.299 625.365 208.739 625.297C209.204 625.089 209.708 625.469 209.91 625.941C209.973 626.389 209.734 626.929 209.156 626.972Z" fill="white" fill-opacity="0.7"/>
<path d="M208.825 622.403C209.026 622.875 208.788 623.415 208.323 623.623C207.857 623.832 207.329 623.592 207.127 623.12C206.925 622.648 207.164 622.108 207.629 621.9C208.094 621.691 208.623 621.931 208.825 622.403Z" fill="white" fill-opacity="0.7"/>
<path d="M205.665 620.097C205.463 619.624 205.539 619.201 205.89 618.827C206.381 618.478 206.909 618.717 207.136 619.048C207.338 619.52 207.238 620.085 206.772 620.293C206.42 620.667 205.867 620.569 205.665 620.097Z" fill="white" fill-opacity="0.7"/>
<path d="M204.983 617.503C204.632 617.877 204.078 617.778 203.713 617.423C203.348 617.067 203.448 616.503 203.8 616.129C204.152 615.755 204.705 615.853 205.07 616.209C205.435 616.564 205.474 617.153 204.983 617.503Z" fill="white" fill-opacity="0.7"/>
<path d="M202.729 614.92C202.378 615.294 201.824 615.196 201.434 614.981C201.069 614.626 201.03 614.037 201.382 613.663C201.734 613.289 202.313 613.246 202.678 613.602C203.043 613.958 203.081 614.546 202.729 614.92Z" fill="white" fill-opacity="0.7"/>
<path d="M200.124 612.712C199.91 613.111 199.307 613.295 198.941 612.939C198.551 612.724 198.375 612.111 198.726 611.737C198.94 611.338 199.544 611.154 199.934 611.369C200.299 611.725 200.337 612.314 200.124 612.712Z" fill="white" fill-opacity="0.7"/>
<path d="M196.649 609.768C197.177 610.007 197.379 610.479 197.141 611.019C196.927 611.418 196.462 611.626 195.908 611.528C195.518 611.313 195.178 610.816 195.417 610.277C195.63 609.878 196.12 609.529 196.649 609.768Z" fill="white" fill-opacity="0.7"/>
<path d="M192.826 610.399C192.411 610.325 192.071 609.828 192.146 609.405C192.221 608.982 192.711 608.633 193.265 608.731C193.818 608.829 194.02 609.301 193.92 609.866C193.845 610.289 193.379 610.497 192.826 610.399Z" fill="white" fill-opacity="0.7"/>
<path d="M189.593 610.116C189.152 610.184 188.812 609.687 188.749 609.239C188.686 608.791 189.062 608.276 189.641 608.234C190.22 608.191 190.56 608.687 190.46 609.252C190.523 609.699 190.033 610.049 189.593 610.116Z" fill="white" fill-opacity="0.7"/>
<path d="M186.398 610.422C185.958 610.49 185.429 610.25 185.391 609.662C185.327 609.214 185.566 608.674 186.145 608.631C186.585 608.564 187.088 608.944 187.152 609.392C187.215 609.84 186.863 610.214 186.398 610.422Z" fill="white" fill-opacity="0.7"/>
<path d="M183.242 611.317C182.777 611.525 182.248 611.286 182.046 610.814C181.845 610.342 182.083 609.802 182.548 609.594C183.014 609.385 183.542 609.624 183.719 610.238C183.945 610.569 183.707 611.109 183.242 611.317Z" fill="white" fill-opacity="0.7"/>
<path d="M180.287 612.684C179.96 612.917 179.407 612.819 179.042 612.463C178.676 612.107 178.915 611.568 179.267 611.194C179.757 610.844 180.286 611.083 180.487 611.556C180.852 611.911 180.752 612.475 180.287 612.684Z" fill="white" fill-opacity="0.7"/>
<path d="M177.786 614.713C177.434 615.087 176.88 614.989 176.515 614.633C176.15 614.278 176.112 613.689 176.463 613.315C176.815 612.941 177.507 613.064 177.734 613.395C178.074 613.892 178.112 614.48 177.786 614.713Z" fill="white" fill-opacity="0.7"/>
<path d="M175.624 617.239C175.411 617.638 174.832 617.681 174.442 617.466C174.052 617.251 173.875 616.638 174.252 616.123C174.604 615.749 175.182 615.706 175.573 615.921C175.799 616.252 175.838 616.841 175.624 617.239Z" fill="white" fill-opacity="0.7"/>
<path d="M173.967 620.146C173.753 620.544 173.288 620.753 172.735 620.655C172.344 620.44 172.004 619.943 172.243 619.403C172.456 619.005 173.085 618.68 173.45 619.036C174.004 619.134 174.18 619.747 173.967 620.146Z" fill="white" fill-opacity="0.7"/>
<path d="M172.321 622.181C172.736 622.255 173.076 622.752 173.001 623.175C172.926 623.598 172.435 623.948 172.02 623.874C171.605 623.8 171.265 623.303 171.34 622.88C171.302 622.292 171.767 622.083 172.321 622.181Z" fill="white" fill-opacity="0.7"/>
<path d="M172.702 626.468C172.765 626.916 172.389 627.431 171.81 627.474C171.37 627.541 170.866 627.161 170.828 626.572C170.79 625.983 171.142 625.609 171.72 625.566C172.274 625.665 172.639 626.02 172.702 626.468Z" fill="white" fill-opacity="0.7"/>
<path d="M172.643 630.822C172.178 631.03 171.65 630.791 171.473 630.178C171.271 629.706 171.648 629.191 172.113 628.982C172.554 628.915 173.082 629.154 173.145 629.602C173.347 630.074 173.109 630.614 172.643 630.822Z" fill="white" fill-opacity="0.7"/>
<path d="M173.223 632.38C173.689 632.171 174.242 632.27 174.444 632.742C174.646 633.214 174.571 633.637 174.08 633.987C173.59 634.336 173.036 634.238 172.86 633.625C172.658 633.152 172.758 632.588 173.223 632.38Z" fill="white" fill-opacity="0.7"/>
<path d="M175.151 635.195C175.502 634.821 176.056 634.919 176.421 635.275C176.786 635.631 176.686 636.195 176.334 636.569C175.982 636.943 175.404 636.986 175.039 636.63C174.699 636.133 174.799 635.569 175.151 635.195Z" fill="white" fill-opacity="0.7"/>
<path d="M177.921 638.887C177.531 638.672 177.355 638.059 177.706 637.685C177.92 637.287 178.523 637.103 178.889 637.458C179.279 637.673 179.455 638.286 179.103 638.66C178.915 638.918 178.311 639.102 177.921 638.887Z" fill="white" fill-opacity="0.7"/>
<path d="M181.231 640.347C180.678 640.249 180.501 639.636 180.714 639.237C180.928 638.839 181.418 638.489 181.808 638.704C182.223 638.778 182.563 639.274 182.463 639.838C182.25 640.237 181.76 640.586 181.231 640.347Z" fill="white" fill-opacity="0.7"/>
<path d="M184.877 639.103C185.293 639.177 185.796 639.557 185.859 640.005C185.923 640.452 185.546 640.967 184.967 641.01C184.389 641.053 184.049 640.556 184.124 640.133C184.085 639.544 184.437 639.17 184.877 639.103Z" fill="white" fill-opacity="0.7"/>
<path d="M187.984 638.49C188.424 638.423 188.839 638.497 189.016 639.11C189.218 639.582 188.979 640.122 188.376 640.306C187.91 640.514 187.407 640.134 187.205 639.661C187.28 639.238 187.519 638.699 187.984 638.49Z" fill="white" fill-opacity="0.7"/>
<path d="M192.046 637.32C192.411 637.676 192.286 638.381 191.821 638.589C191.331 638.939 190.777 638.84 190.575 638.368C190.373 637.896 190.474 637.332 190.8 637.099C191.266 636.89 191.681 636.964 192.046 637.32Z" fill="white" fill-opacity="0.7"/>
<path d="M194.345 634.818C194.736 635.033 194.912 635.646 194.535 636.161C194.183 636.535 193.58 636.719 193.215 636.363C192.85 636.008 192.811 635.419 193 635.161C193.377 634.646 193.842 634.438 194.345 634.818Z" fill="white" fill-opacity="0.7"/>
<path d="M195.776 631.581C196.191 631.654 196.531 632.151 196.431 632.715C196.193 633.255 195.728 633.463 195.199 633.224C194.809 633.009 194.469 632.512 194.682 632.114C194.757 631.691 195.223 631.482 195.776 631.581Z" fill="white" fill-opacity="0.7"/>
<path d="M195.938 629.864C195.523 629.79 195.019 629.41 195.095 628.986C195.031 628.539 195.383 628.165 195.987 627.981C196.427 627.914 196.93 628.294 196.969 628.883C196.869 629.447 196.492 629.962 195.938 629.864Z" fill="white" fill-opacity="0.7"/>
<path d="M194.35 625.945C194.286 625.497 194.361 625.074 194.852 624.724C195.317 624.516 195.87 624.614 196.047 625.228C196.249 625.7 196.01 626.239 195.545 626.448C195.08 626.656 194.551 626.417 194.35 625.945Z" fill="white" fill-opacity="0.7"/>
<path d="M193.894 622.081C194.259 622.437 194.272 623.167 193.807 623.375C193.455 623.749 192.901 623.651 192.536 623.295C192.171 622.939 192.246 622.516 192.485 621.977C192.95 621.768 193.528 621.726 193.894 622.081Z" fill="white" fill-opacity="0.7"/>
<path d="M190.107 621.7C189.692 621.627 189.515 621.013 189.59 620.59C189.665 620.167 190.294 619.842 190.822 620.082C191.351 620.321 191.528 620.934 191.314 621.333C191.101 621.731 190.522 621.774 190.107 621.7Z" fill="white" fill-opacity="0.7"/>
<path d="M187.201 621.185C186.76 621.252 186.395 620.896 186.194 620.424C186.13 619.976 186.507 619.461 187.086 619.419C187.664 619.376 188.029 619.731 188.068 620.32C187.993 620.743 187.616 621.258 187.201 621.185Z" fill="white" fill-opacity="0.7"/>
<path d="M184.321 622.128C183.994 622.361 183.44 622.263 183.075 621.907C182.71 621.552 182.835 620.847 183.326 620.497C183.791 620.289 184.483 620.411 184.684 620.884C184.861 621.497 184.786 621.92 184.321 622.128Z" fill="white" fill-opacity="0.7"/>
<path d="M181.028 624.599C180.637 624.385 180.461 623.771 180.674 623.373C180.913 622.833 181.63 622.815 181.995 623.171C182.36 623.526 182.423 623.974 182.21 624.373C182.021 624.63 181.418 624.814 181.028 624.599Z" fill="white" fill-opacity="0.7"/>
<path d="M9.13455 795.298C8.49713 799.695 6.72757 804.036 3.86267 807.31C1.16118 810.468 -2.22048 812.632 -5.67871 813.619C-8.97354 814.489 -12.0932 814.372 -14.7859 813.458C-17.3402 812.568 -19.3792 811.188 -20.6513 809.507C-21.9483 807.968 -22.6418 806.245 -22.8067 804.761C-23.2248 801.486 -21.8189 798.389 -18.6374 797.353C-16.3614 796.593 -13.8571 797.765 -12.987 800.102C-12.2553 802.414 -13.4227 804.971 -15.7238 805.872C-16.3274 806.056 -16.906 806.098 -17.4846 806.141C-16.7543 806.853 -15.9991 807.423 -14.942 807.902C-13.218 808.644 -10.8654 809.062 -8.50103 808.608C-5.99825 808.179 -3.20695 806.929 -1.09581 804.685C1.31713 802.349 3.02488 799.16 3.76389 795.8C4.55295 792.157 4.3733 788.343 3.28822 784.805C1.02973 777.421 -5.11394 771.821 -11.2296 769.281C-17.2068 766.765 -23.056 766.746 -27.1811 767.469C-27.0427 767.493 -26.766 767.542 -26.4892 767.591C-23.9098 768.34 -21.279 770.407 -20.0938 773.382C-19.4887 774.798 -19.2104 776.448 -19.5107 778.14C-19.6476 779.716 -20.3381 781.194 -21.3936 782.316C-22.3108 783.463 -23.5681 784.113 -24.7753 784.48C-25.9575 784.707 -27.1147 784.793 -27.92 784.504C-28.8637 784.191 -29.5056 783.787 -29.959 783.124C-30.4375 782.603 -30.6142 781.989 -30.6524 781.401C-30.8674 780.199 -30.2771 779.285 -29.2082 778.893C-28.4412 778.593 -27.5225 779.047 -27.2325 779.825C-26.9424 780.604 -27.3944 781.542 -28.1614 781.843C-28.3249 781.959 -28.6016 781.91 -28.74 781.886C-28.4883 782.076 -28.2365 782.266 -27.8464 782.481C-27.1795 782.744 -26.4875 782.867 -25.6071 782.732C-24.7267 782.598 -23.7963 782.181 -22.9542 781.457C-22.0871 780.593 -21.4717 779.538 -21.2715 778.41C-20.9079 777.165 -21.0978 775.822 -21.4511 774.596C-22.2712 771.977 -24.3736 770.149 -26.4877 769.192C-28.0733 768.474 -29.759 768.321 -31.0545 768.382C-33.3056 769.001 -34.5128 769.368 -34.7645 769.178C-34.7645 769.178 -34.7645 769.178 -34.7395 769.037C-34.7395 769.037 -34.7145 768.896 -34.5511 768.78C-34.0108 768.148 -31.9114 766.775 -28.5915 765.764C-24.3412 764.336 -17.5749 763.208 -10.1387 765.546C-2.95424 767.694 4.71169 773.564 8.17889 782.181C9.21391 786.001 9.79699 790.76 9.13455 795.298Z" fill="white" fill-opacity="0.7"/>
<path d="M462.641 1137.2C462.641 1137.2 460.655 1138.73 457.627 1142.13C454.762 1145.4 450.968 1150.69 448.397 1157.95C445.85 1165.06 444.802 1174.18 446.735 1183.4C447.62 1188.07 449.385 1192.6 451.779 1196.81C454.173 1201.01 457.195 1204.9 461.298 1207.52C469.341 1212.87 480.046 1212.88 487.803 1208.58C496.063 1204.66 498.294 1195.31 495.37 1189.27C492.961 1182.73 486.647 1182.92 484.284 1184.97C482.411 1186.68 483.406 1188.31 483.381 1188.45C483.37 1189.32 484.805 1190.88 486.716 1189.77C487.156 1189.7 487.685 1189.94 487.95 1190.86C488.24 1191.64 487.663 1193.28 486.657 1194.12C485.627 1195.1 483.791 1195.79 481.74 1195.29C479.777 1195.08 477.725 1192.97 477.032 1191.25C476.83 1190.78 476.225 1189.36 476.21 1187.03C476.17 1184.84 477.35 1181.41 480.593 1179.22C483.207 1177.36 487.244 1176.33 491.459 1177.52C493.51 1178.03 495.574 1179.26 497.286 1180.88C498.974 1182.63 500.057 1184.57 500.952 1186.77C502.604 1191.13 502.785 1196.55 500.941 1201.31C499.209 1206.24 494.76 1210.4 490.083 1212.62C480.654 1217.5 468.225 1216.75 459.527 1210.26C455.084 1207.14 451.746 1202.62 449.428 1197.99C447.109 1193.36 445.419 1188.4 444.697 1183.62C443.002 1173.86 444.654 1164.56 447.503 1157.35C450.352 1150.15 454.422 1144.9 457.425 1141.65C460.542 1138.57 462.641 1137.2 462.641 1137.2Z" fill="white" fill-opacity="0.7"/>
<path d="M463.717 1184.23C464.144 1183.43 462.91 1182.34 460.871 1180.96C458.693 1179.56 455.459 1177.67 453.253 1173.21C451.993 1170.66 451.198 1167.9 450.843 1165.07C450.4 1161.94 450.535 1158.76 451.036 1155.94C451.612 1152.7 452.527 1149.95 453.57 1148.1C454.712 1145.68 455.793 1144.42 455.441 1144.79C455.114 1145.03 453.518 1146.78 451.974 1149.85C450.668 1152.38 449.375 1155.65 448.7 1159.45C448.124 1162.7 447.939 1166.16 448.357 1169.43C448.687 1172.4 449.318 1175.28 450.578 1177.83C454.397 1186.07 462.888 1185.68 463.717 1184.23Z" fill="white" fill-opacity="0.7"/>
<path d="M28.7844 1026.46C53.5175 1002.92 86.8882 988.617 120.824 987.219C137.78 986.591 154.864 988.459 171.36 994.441C187.555 1000.51 202.256 1010.98 213.565 1024.48C236.206 1051.34 244.582 1090.21 233.067 1124.54C221.628 1160.04 182.001 1182.25 146.533 1173.78L146.608 1173.35C164.939 1177.04 184.571 1173.4 200.336 1163.39C216.075 1153.53 228.06 1137.47 232.836 1119.41C242.45 1083.72 231.168 1044.33 205.472 1019.41C179.95 993.492 141.805 986.432 107.822 991.313C73.2599 996.237 40.8992 1014.5 18.5468 1041.52C56.8063 995.646 125.409 979.886 175.949 1005.58C196.425 1016.49 212.078 1035.27 219.28 1056.63C222.396 1065.62 224.317 1075.7 224.263 1084.86C222.858 1062.21 212.799 1040.05 196.482 1024.21C180.241 1007.95 157.994 999.779 134.759 997.984C88.3899 993.83 40.1087 1016.54 12.9378 1056.24C6.07888 1065.93 0.503707 1076.44 -3.64928 1087.77C-5.73241 1093.08 -7.46218 1099.61 -8.75325 1104.47C-8.99025 1106.61 -9.34061 1108.59 -9.55259 1110.58C-5.99891 1090.56 3.43044 1072.01 15.0387 1056.46C21.2072 1048.25 29.0614 1040.19 36.792 1034.43C13.2014 1055.56 -3.87751 1085.84 -6.9923 1117.88C-9.15032 1137.28 -8.9307 1156.96 -6.04489 1176.09L-13.1027 1174.84C-16.4037 1155.63 -17.1769 1135.85 -15.4341 1116.38C-13.076 1082.17 4.07643 1049.86 28.7844 1026.46Z" fill="white" fill-opacity="0.7"/>
<path d="M-25.0431 995.961C-6.37809 899.619 31.4745 808.573 54.2412 713.249C59.7411 689.494 64.4357 665.45 67.0544 641.037C70.2665 618.912 69.0722 592.659 63.3273 569.527C57.6825 545.83 47.5356 523.372 33.6051 503.733C19.8381 483.978 2.06076 466.712 -19.6473 456.314C-62.4731 434.603 -116.822 439.217 -155.525 468.283C-175.248 482.095 -190.21 502.863 -195.433 526.668C-200.344 547.909 -197.694 570.784 -188.015 590.25C-190.384 585.901 -192.199 581.651 -193.536 577.923C-197.836 565.958 -198.259 557.881 -198.422 557.998C-198.422 557.998 -198.553 565.976 -195.045 578.382C-194.162 581.449 -193.026 584.705 -191.64 588.152C-200.211 568.882 -202.433 546.811 -197.622 526.134C-192.299 501.765 -176.822 480.507 -156.772 466.461C-117.302 437.095 -62.2361 432.463 -18.9318 454.695C3.02799 465.283 20.8937 482.856 34.7991 502.636C48.8179 522.581 58.9147 545.321 64.6979 569.043C70.3928 592.457 71.5621 618.851 68.325 641.117C65.7062 665.53 60.8732 689.549 55.3483 713.446C32.4432 808.745 -5.54773 899.766 -24.4645 995.918C-33.5269 1043.77 -37.6941 1093.81 -26.2911 1141.37C-23.7396 1152.73 -20.0058 1163.87 -15.4801 1174.56L-15.7569 1174.51C-20.2826 1163.82 -23.903 1152.85 -26.6179 1141.6C-37.9959 1093.9 -33.9671 1043.84 -25.0431 995.961Z" fill="white" fill-opacity="0.7"/>
<path d="M31.3735 956.363C64.2917 901.975 114.419 862.425 164.601 827.394C200.125 802.564 236.695 779.084 270.594 751.348C304.304 723.869 335.545 691.005 355.231 650.854C375.307 610.918 382.446 565.049 379.852 520.945C377.446 476.582 366.814 433.525 352.436 392.276C367.028 433.127 378.099 476.117 380.921 520.552C383.905 564.871 377.017 610.93 357.118 651.48C337.47 692.22 306.017 725.482 272.118 753.218C238.169 781.237 201.435 804.834 166.074 829.546C115.918 864.436 66.1423 903.613 33.1858 957.412C-0.412556 1010.81 -11.5844 1076.18 -7.06086 1138.38C-6.21858 1151.33 -4.77268 1164.1 -2.91162 1176.94L-3.60357 1176.82C-5.62805 1164.09 -7.07395 1151.32 -8.07966 1138.49C-13.0183 1076.22 -2.18659 1010.35 31.3735 956.363Z" fill="white" fill-opacity="0.7"/>
<path d="M365.352 173.874C366.484 173.93 367.641 173.844 366.345 173.905C366.509 173.788 366.068 173.856 365.352 173.874Z" fill="white" fill-opacity="0.7"/>
<path d="M-4.06593 964.623C17.7238 914.225 54.1504 872.243 93.8661 836.665C133.745 800.97 177 770.383 218.795 738.374C277.898 693.288 336.305 643.277 373.601 576.282C411.54 509.691 421.868 429.764 413.219 354.616C408.22 308.776 397.197 263.903 383.194 220.539C380.62 212.517 377.883 204.612 375.008 196.682C373.558 192.788 372.133 188.753 370.682 184.858L368.451 178.934L367.404 175.984L366.799 174.567L366.509 173.788L366.799 174.567L367.379 176.125L368.564 179.099L370.796 185.024C372.384 188.943 373.696 192.812 375.121 196.848C378.022 204.636 380.734 212.683 383.332 220.563C397.637 263.836 408.937 308.758 414.213 354.647C423.553 429.918 413.704 510.366 375.779 577.687C338.634 645.436 279.85 695.962 220.747 741.048C178.952 773.057 135.722 803.503 96.0318 838.94C56.5296 874.12 20.3414 915.562 -1.62497 965.347C-23.9815 1014.92 -30.3069 1070.68 -24.9488 1124.15C-23.3732 1141.01 -20.6656 1157.93 -17.3043 1174.38L-18.4114 1174.19C-21.9611 1157.99 -24.5805 1141.38 -26.3194 1124.63C-32.1177 1071.23 -26.2458 1014.81 -4.06593 964.623Z" fill="white" fill-opacity="0.7"/>
<path d="M363.942 173.77C362.647 173.831 364.081 173.794 365.351 173.874C364.496 173.868 363.779 173.886 363.942 173.77Z" fill="white" fill-opacity="0.7"/>
<path d="M6.3206 988.142C20.9981 945.648 42.81 905.583 71.2308 870.91C96.5483 840.05 127.582 815.588 160.859 794.579C226.808 752.744 299.612 723.764 366.191 683.204C398.689 663.366 429.724 640.504 455.862 612.264C482.867 583.158 503.174 548.355 515.226 510.195C516.869 504.959 518.399 499.556 519.79 494.13C519.865 493.706 520.532 493.97 520.457 494.393C510.782 532.829 493.167 568.547 468.315 599.198C444.732 628.328 415.37 652.215 384.32 672.746C319.328 715.624 246.939 744.677 179.868 783.985C145.936 803.86 113.052 826.685 85.7953 855.6C54.4801 888.887 30.3789 928.982 13.3871 971.647C-12.0506 1035.36 -22.1845 1107.76 -10.2468 1175.64L-10.9387 1175.51C-22.0283 1113.32 -14.2279 1047.63 6.3206 988.142Z" fill="white" fill-opacity="0.7"/>
<path d="M-10.3366 1065.93C-1.61455 1003.9 27.8292 946.569 61.3157 894.61C98.9596 836.114 143.313 782.445 186.13 727.777C227.842 674.513 269.477 620.072 300.49 559.527C328.276 505.101 346.157 444.553 339.081 383.069C337.305 367.333 333.793 351.725 328.911 336.602C323.613 319.804 316.98 302.479 307.142 287.931C280.804 248.924 237.862 223.847 191.731 219.153C145.6 214.459 93.5646 230.976 63.5362 268.274C33.1059 306.228 30.2902 362.32 56.7938 402.811C70.1839 423.081 92.6737 435.509 116.512 437.12C140.627 438.781 167.033 428.336 180.359 407.133C193.547 385.905 191.001 353.593 170.797 337.933C150.09 321.893 110.856 333.844 116.105 364.599C116.686 367.757 117.871 370.732 119.383 373.473C119.724 373.97 118.818 374.246 118.616 373.773C113.967 365.383 113.253 354.928 117.899 346.441C122.972 337.158 132.175 331.953 142.211 330.097C163.742 326.207 181.103 341.799 187.147 361.638C193.506 382.115 186.634 404.755 171.616 419.402C155.944 434.515 132.125 440.036 111.305 437.506C65.601 432.015 39.2446 387.477 37.8705 343.734C37.1709 321.933 42.899 300.109 53.8123 281.242C65.2027 261.296 82.535 246.477 102.4 235.89C141.5 215.041 188.127 212.113 229.663 226.611C250.349 233.919 269.379 245.733 285.544 260.822C300.614 274.844 311.951 291.403 320.321 310.2C332.813 338.749 340.326 369.615 341.751 401C343.112 430.338 338.787 459.539 330.801 487.655C313.135 549.404 278.281 605.049 241.284 656.677C200.633 713.62 155.449 767.141 113.287 822.944C73.5246 875.681 34.9972 931.111 10.5768 993.116C-12.2625 1051.04 -18.9838 1113.86 -1.2545 1174.03C-1.01452 1175.09 -0.636142 1176.18 -0.371125 1177.1L-1.20147 1176.95C-3.37162 1169.87 -5.26498 1162.85 -6.83152 1155.58C-13.6513 1126.44 -14.51 1095.88 -10.3366 1065.93Z" fill="white" fill-opacity="0.7"/>
<path d="M-37.3299 1053.14C-34.3314 1017.74 -28.7919 982.494 -27.4792 946.939C-26.3284 913.1 -29.0539 876.974 -48.414 848.516C-63.7181 826.161 -88.9684 807.569 -116.991 811.034C-132.939 812.424 -148.392 819.865 -159.626 831.693C-160.305 832.3 -160.87 833.072 -161.41 833.704C-163.898 836.463 -166.021 839.578 -168.006 842.717C-175.869 854.851 -178.345 870.415 -173.791 884.171C-169.514 897.877 -158.824 909.23 -145.612 913.611C-132.149 918.183 -116.318 911.826 -109.147 899.569C-100.755 887.674 -107.301 869.055 -121.04 866.035C-129.382 863.973 -139.702 871.452 -138.599 880.522C-138.409 881.866 -137.564 884.343 -136.292 886.024C-134.882 887.729 -133.183 888.612 -133.396 889.011C-133.421 889.152 -135.447 888.501 -137.159 886.888C-138.846 885.134 -140.082 882.442 -140.385 880.933C-142.32 870.115 -130.617 861.281 -120.753 863.613C-104.775 866.884 -97.6859 888.073 -107.133 901.09C-115.058 914.378 -132.322 920.77 -146.566 915.77C-160.395 910.843 -171.237 898.736 -175.3 884.63C-179.64 870.476 -176.837 854.68 -168.698 842.594C-166.575 839.479 -164.452 836.364 -161.989 833.746C-157.315 828.32 -151.608 823.513 -145.247 819.841C-125.786 808.31 -100.642 807.389 -80.8578 818.173C-53.5346 833.932 -35.4568 863.181 -30.4464 894.476C-24.2626 929.615 -28.0531 965.458 -31.7435 1000.74C-35.347 1034.72 -40.1328 1068.93 -38.7926 1103.21C-37.8766 1127.82 -33.0856 1153.11 -20.3991 1174.13L-20.5375 1174.1C-25.5138 1165.94 -29.3711 1157.11 -32.1596 1147.89C-41.1067 1117.06 -39.9044 1084.54 -37.3299 1053.14Z" fill="white" fill-opacity="0.7"/>
<path d="M7.79097 1026.52C29.5923 961.575 63.7632 901.736 85.4261 836.767C96.0124 804.458 103.528 770.149 99.7097 736.156C95.8167 702.587 80.1504 669.402 54.0549 648.332C27.0673 628.268 -11.1369 625.563 -40.8329 641.679C-55.505 649.55 -68.8653 661.291 -76.1717 676.725C-83.2146 691.478 -84.3303 709.029 -79.5233 724.575C-80.9102 721.129 -81.6802 718.228 -81.8186 718.203L-81.957 718.179C-81.957 718.179 -81.6772 721.429 -80.8056 725.366C-80.5906 726.568 -80.2123 727.654 -79.8589 728.88C-80.149 728.101 -80.439 727.322 -80.729 726.544C-86.3796 710.12 -85.2271 691.557 -77.7323 675.866C-70.2124 660.034 -56.5503 648.201 -41.7148 640.213C-11.5536 623.888 27.3176 626.858 54.6953 647.136C81.1559 668.562 96.7722 702.029 100.615 735.881C104.383 770.155 96.7044 804.581 86.1181 836.89C64.2918 901.975 30.0074 961.649 8.09277 1026.43C-2.63195 1058.71 -10.3989 1092.83 -7.32301 1126.98C-5.83434 1145.14 -0.635674 1162.5 7.35429 1178.61L7.21591 1178.59C-0.93749 1162.59 -6.11113 1145.09 -7.62482 1127.07C-10.5874 1093.09 -2.93376 1058.8 7.79097 1026.52Z" fill="white" fill-opacity="0.7"/>
<path d="M-80.6674 725.391C-80.4524 726.593 -80.074 727.678 -79.7207 728.905C-75.6954 742.421 -67.28 756.135 -52.6563 763.821C-37.139 772.103 -15.1528 770.476 -0.0582921 757.006C8.45107 750.078 13.4594 738.746 13.2105 728.082C13.1249 717.301 8.05888 707.237 0.191244 700.895C-7.92816 694.362 -19.438 694.066 -27.4586 699.044C-35.6559 703.408 -40.149 714.25 -36.3682 721.903C-34.6162 725.706 -31.9603 727.632 -32.1237 727.748C-31.9853 727.773 -34.3777 725.166 -35.2994 721.511C-37.3444 713.729 -32.4331 706.162 -25.3915 703.484C-18.5767 700.474 -10.2733 701.947 -5.02328 706.952C6.3704 717.558 6.36478 738.506 -6.93368 749.094C-18.8232 759.786 -36.1041 762.248 -49.8327 756.757C-63.5612 751.266 -73.9759 738.362 -79.5985 724.998C-79.7119 724.833 -79.6869 724.692 -79.8002 724.526C-81.1871 721.079 -81.9571 718.179 -82.0955 718.154L-82.2339 718.13C-81.8438 718.344 -81.564 721.594 -80.6674 725.391ZM-74.8828 737.037C-75.7397 735.43 -76.043 733.922 -76.5097 732.529C-76.068 734.063 -75.6263 735.596 -74.7695 737.203C-72.6391 742.091 -69.0115 747.39 -64.7051 752.082C-49.7339 768.268 -22.7392 768.984 -7.02781 756.06C1.0296 750.07 6.98314 740.652 7.28775 730.086C7.68069 719.827 3.04158 708.965 -5.75651 703.04C-10.8666 699.66 -17.0309 699.003 -21.7596 699.909C-23.5204 700.179 -26.7019 701.215 -27.0037 701.307C-26.8152 701.049 -22.6783 699.455 -20.8041 699.352C-15.6602 698.518 -9.57109 699.599 -4.82608 702.623C11.6247 713.689 13.7009 741.408 -4.58834 755.184C-21.0903 770.15 -50.3625 768.593 -65.0703 751.726C-69.54 747.15 -73.0292 741.876 -74.8828 737.037Z" fill="white" fill-opacity="0.7"/>
<path d="M-5.14251 1037.46C12.8341 985.225 44.5157 940.219 76.9792 897.243C109.719 854.317 144.537 813.359 175.578 769.549C206.154 725.948 234.311 678.28 242.174 625.12C245.998 598.739 243.96 571.609 236.075 546.06C232.013 533.555 227.309 520.646 220.242 509.79C212.898 498.885 203.757 489.262 193.159 481.417C151.443 449.429 86.5632 451.446 48.573 489.368C30.0748 508.344 21.5731 536.95 26.7925 563.044C29.3204 576.149 34.653 588.734 43.3039 598.707C52.1183 608.563 64.2377 615.078 77.158 617.08C90.2416 618.965 103.736 616.122 115.113 609.121C126.465 602.261 133.9 589.323 134.428 575.887C134.907 562.733 129.207 548.192 117.101 542.407C105.46 536.414 88.6962 539.986 82.6323 552.439C77.9625 562.667 83.6057 571.088 83.5807 571.229C83.6307 570.947 77.8241 562.643 82.5189 552.274C88.6079 539.679 105.535 535.991 117.34 541.868C129.861 547.726 135.674 562.433 135.309 575.752C134.869 589.495 127.384 602.715 115.843 609.832C104.441 616.974 90.4816 620.026 77.2345 618.257C63.8741 616.323 51.3395 609.734 42.2734 599.688C33.2323 589.5 27.8114 576.609 25.0317 563.314C19.4972 536.581 27.8723 507.08 46.7975 487.307C85.7299 448.098 152.03 445.314 195.47 478.044C206.32 486.08 215.99 495.943 223.699 507.203C231.357 518.746 235.948 531.49 240.35 544.491C248.601 570.396 251.042 598.47 247.231 625.581C239.508 680.366 211.063 728.855 180.663 773.07C149.799 817.493 115.07 858.758 82.8829 901.782C50.8596 944.691 20.0584 989.561 3.09902 1040.09C-5.21723 1065.24 -9.36856 1091.85 -7.45725 1118.08C-5.89053 1139.02 -0.525454 1159.47 7.76931 1178.69L-3.71699 1176.65C-10.8664 1158.21 -15.5262 1138.62 -16.853 1118.75C-18.6774 1091.22 -14.0241 1063.38 -5.14251 1037.46Z" fill="white" fill-opacity="0.7"/>
</svg>
