<svg width="1539" height="1622" viewBox="0 0 1539 1622" fill="none" xmlns="http://www.w3.org/2000/svg">
<path d="M1531.67 888.207C1531.67 1305.1 1157.84 1613.74 732.855 1613.74C307.872 1613.74 43.97 1436.32 102.598 1370.37C850.113 1736.8 785.376 245.434 1034.55 113.517C1283.72 -18.4004 1414.41 -5.87923 1414.41 8.77794C1414.41 23.4351 1213.82 122.602 1231.2 243.292C1248.69 364.756 1491.57 530.193 1495.03 675.678C1497.22 768.02 1531.67 818.633 1531.67 888.207Z" fill="white"/>
<ellipse cx="791.484" cy="800.265" rx="732.857" ry="718.2" fill="white"/>
<path fill-rule="evenodd" clip-rule="evenodd" d="M1007 330.161C1154.36 202.111 1296.02 94.1467 1416.62 8.77979C1395.92 36.3985 1198.8 212.85 1243.21 234.392C1473.04 345.894 1539 597.022 1539 845.232C1539 1273.86 1193.26 1621.07 767.23 1621.07C721.916 1621.07 677.672 1617.12 634.499 1609.59C892.826 1603.13 1163.28 1495.53 1250.7 1241.22C1362.38 916.61 925.652 898.317 925.652 898.317C925.652 898.317 1000.94 871.774 1112.62 769.549C1224.3 667.324 1226.44 393.648 1009.14 330.52L1007 330.161Z" fill="#15DAE2"/>
<path fill-rule="evenodd" clip-rule="evenodd" d="M1005.9 523.375C998.842 471.607 957.929 440.69 900.439 423.075C787.928 429.186 535.044 753.813 391.143 951.177C399.255 958.367 407.014 967.714 413.715 979.218C486.371 1103.24 284.628 1242.01 187.283 1247.4C89.9381 1252.8 279.337 1244.89 209.856 1085.63C177.76 1015.17 266.64 921.698 343.881 929.966C399.255 803.064 503.653 615.406 695.874 404.381C546.33 410.133 399.607 442.847 399.607 442.847C399.607 442.847 583.363 360.522 767.825 329.606C818.261 280.714 872.929 232.901 932.535 187.245C964.63 162.799 995.668 139.791 1026 118.221C944.174 87.6637 855.647 70.7673 763.24 70.7673C341.765 70.7673 0 419.12 0 848.72C0 1065.86 87.1165 1261.78 227.843 1403.07C150.25 1390.48 95.2286 1366.04 94.1705 1365.68C161.889 1435.42 345.997 1574.55 676.476 1468.85C1106.06 1331.88 1017.89 1071.97 917.369 991.8C816.85 911.992 714.567 908.037 714.567 908.037C714.567 908.037 1034.11 731.883 1005.9 523.375Z" fill="#01A0B6"/>
</svg>
