<svg width="101" height="101" viewBox="0 0 101 101" fill="none" xmlns="http://www.w3.org/2000/svg">
<path d="M50.5 0C22.6543 0 0 22.6543 0 50.5C0 78.3457 22.6543 101 50.5 101C78.3457 101 101 78.3457 101 50.5C101 22.6543 78.3457 0 50.5 0ZM50.5 97.6333C24.511 97.6333 3.36667 76.489 3.36667 50.5C3.36667 24.511 24.511 3.36667 50.5 3.36667C76.489 3.36667 97.6333 24.511 97.6333 50.5C97.6333 76.489 76.489 97.6333 50.5 97.6333Z" fill="white"/>
<path d="M52.1834 43.8018V26.7295C52.1834 25.7986 51.4292 25.0461 50.5 25.0461C49.5708 25.0461 48.8167 25.7986 48.8167 26.7295V43.8018C46.4617 44.4146 44.6185 46.2578 44.0057 48.6128H31.9834C31.0542 48.6128 30.3 49.3653 30.3 50.2961C30.3 51.227 31.0542 51.9795 31.9834 51.9795H44.0057C44.7582 54.8748 47.3724 57.0295 50.5 57.0295C54.2135 57.0295 57.2334 54.0096 57.2334 50.2961C57.2334 47.1668 55.0787 44.5543 52.1834 43.8018ZM50.5 53.6628C48.6433 53.6628 47.1334 52.1529 47.1334 50.2961C47.1334 48.4394 48.6433 46.9295 50.5 46.9295C52.3568 46.9295 53.8667 48.4394 53.8667 50.2961C53.8667 52.1529 52.3568 53.6628 50.5 53.6628Z" fill="white"/>
<path d="M50.5 16.6296C51.4292 16.6296 52.1833 15.8771 52.1833 14.9463V13.2629C52.1833 12.332 51.4292 11.5796 50.5 11.5796C49.5708 11.5796 48.8167 12.332 48.8167 13.2629V14.9463C48.8167 15.8771 49.5708 16.6296 50.5 16.6296Z" fill="white"/>
<path d="M50.5 83.9629C49.5708 83.9629 48.8167 84.7153 48.8167 85.6462V87.3296C48.8167 88.2604 49.5708 89.0129 50.5 89.0129C51.4292 89.0129 52.1833 88.2604 52.1833 87.3296V85.6462C52.1833 84.7153 51.4292 83.9629 50.5 83.9629Z" fill="white"/>
<path d="M87.5333 48.613H85.85C84.9208 48.613 84.1666 49.3655 84.1666 50.2964C84.1666 51.2272 84.9208 51.9797 85.85 51.9797H87.5333C88.4625 51.9797 89.2166 51.2272 89.2166 50.2964C89.2166 49.3655 88.4625 48.613 87.5333 48.613Z" fill="white"/>
<path d="M15.15 48.613H13.4667C12.5375 48.613 11.7833 49.3655 11.7833 50.2964C11.7833 51.2272 12.5375 51.9797 13.4667 51.9797H15.15C16.0792 51.9797 16.8333 51.2272 16.8333 50.2964C16.8333 49.3655 16.0792 48.613 15.15 48.613Z" fill="white"/>
<path d="M75.4958 22.9185L74.3056 24.1087C73.6475 24.7668 73.6475 25.8307 74.3056 26.4889C74.6339 26.8171 75.0648 26.9821 75.4958 26.9821C75.9267 26.9821 76.3576 26.8171 76.6859 26.4889L77.876 25.2988C78.5342 24.6406 78.5342 23.5767 77.876 22.9185C77.2178 22.2604 76.1539 22.262 75.4958 22.9185Z" fill="white"/>
<path d="M24.3141 74.1019L23.124 75.292C22.4658 75.9502 22.4658 77.0141 23.124 77.6722C23.4523 78.0005 23.8832 78.1655 24.3141 78.1655C24.7451 78.1655 25.176 78.0005 25.5042 77.6722L26.6944 76.4821C27.3525 75.8239 27.3525 74.7601 26.6944 74.1019C26.0362 73.4437 24.9706 73.4454 24.3141 74.1019Z" fill="white"/>
<path d="M76.6859 74.102C76.0277 73.4439 74.9638 73.4439 74.3056 74.102C73.6475 74.7602 73.6475 75.8241 74.3056 76.4823L75.4958 77.6724C75.824 78.0006 76.2549 78.1656 76.6859 78.1656C77.1168 78.1656 77.5477 78.0006 77.876 77.6724C78.5342 77.0142 78.5342 75.9503 77.876 75.2922L76.6859 74.102Z" fill="white"/>
<path d="M25.5042 22.9187C24.8461 22.2605 23.7822 22.2605 23.124 22.9187C22.4658 23.5769 22.4658 24.6407 23.124 25.2989L24.3141 26.489C24.6424 26.8173 25.0733 26.9823 25.5042 26.9823C25.9352 26.9823 26.3661 26.8173 26.6944 26.489C27.3525 25.8309 27.3525 24.767 26.6944 24.1088L25.5042 22.9187Z" fill="white"/>
</svg>
