<svg width="120" height="106" viewBox="0 0 120 106" fill="none" xmlns="http://www.w3.org/2000/svg">
<path d="M40.3614 73.9032C40.5171 72.9154 40.5165 72.9153 40.5158 72.9152L40.5142 72.915L40.51 72.9143L40.4974 72.9124L40.4557 72.9064C40.4207 72.9015 40.3714 72.895 40.3085 72.8874C40.1828 72.8723 40.0027 72.853 39.7742 72.8349C39.3175 72.7987 38.6661 72.767 37.8682 72.7819C36.2751 72.8118 34.0831 73.0281 31.6869 73.7771C26.8665 75.2837 21.2859 78.9308 18.1079 87.3345C16.88 89.864 15.4602 91.7578 14.3503 93.0165C13.7927 93.6488 13.3146 94.1195 12.9803 94.4286C12.8132 94.583 12.6822 94.697 12.5954 94.7705C12.552 94.8072 12.5197 94.8337 12.4995 94.8502L12.4783 94.8672L12.4761 94.869L12.4757 94.8693L12.4753 94.8696L12.4748 94.8699L40.3614 73.9032ZM40.3614 73.9032L40.5171 72.9154M40.3614 73.9032L40.5171 72.9154M40.8351 72.9655L41.0641 73.1918L46.2993 78.363C46.3398 78.4031 46.367 78.4368 46.376 78.4479C46.3914 78.467 46.4032 78.4831 46.4101 78.4927C46.424 78.512 46.4348 78.5284 46.4406 78.5373C46.4488 78.5499 46.4562 78.562 46.4626 78.5725C46.466 78.578 46.469 78.5831 46.4717 78.5876C46.4883 78.6155 46.5065 78.6476 46.5253 78.6822C46.5636 78.7524 46.6123 78.8464 46.668 78.962C46.7794 79.1935 46.9225 79.5194 47.0686 79.9248C47.3601 80.7337 47.669 81.8747 47.7538 83.2238C47.9255 85.9565 47.1685 89.4807 43.6591 92.7343C43.659 92.7344 43.6589 92.7344 43.6588 92.7345L42.9789 92.0012L40.8351 72.9655ZM40.8351 72.9655L40.5171 72.9154M40.8351 72.9655L40.5171 72.9154M101.739 4.36951L101.74 4.36928C105.685 0.471797 112.094 0.471366 116.043 4.36958C119.986 8.26068 119.985 14.5655 116.043 18.4564L116.043 18.4565L52.3453 81.3518L52.0019 81.6909L52.0537 82.1708C52.5334 86.612 51.8786 92.0375 47.5063 96.4698C45.0149 98.993 38.0955 103.329 29.3924 104.339C21.198 105.29 11.4003 103.296 2.19299 93.9444C3.11907 93.8279 4.26938 93.611 5.50367 93.2094C8.50275 92.2336 12.0551 90.1425 14.0062 85.7182L14.0303 85.6637L14.0477 85.6067C16.3418 78.0928 20.1103 73.7499 24.18 71.2864C28.271 68.81 32.7666 68.1726 36.5929 68.258L37.0163 68.2675L37.3177 67.9699L101.739 4.36951ZM50.1338 74.616L50.8363 75.3077L51.5379 74.6151L59.3944 66.86L60.1151 66.1486L59.3946 65.4369L54.1595 60.2656L53.457 59.5717L52.7542 60.2654L44.8979 68.0205L44.1774 68.7318L44.8976 69.4435L45.6004 68.7322L44.8976 69.4435L44.8978 69.4437L44.8984 69.4443L44.901 69.4469L44.9112 69.457L44.951 69.4963L45.1027 69.6461L45.6475 70.1845L47.3337 71.8506C48.5815 73.0833 49.8912 74.3771 50.1338 74.616ZM63.2239 61.6885L63.9265 62.3825L64.6293 61.6886L112.208 14.7095C114.054 12.893 114.054 9.93452 112.209 8.11762C110.375 6.3036 107.406 6.30527 105.569 8.1176L105.569 8.11771L57.9891 55.0942L57.2686 55.8056L57.9889 56.5172L63.2239 61.6885Z" fill="white" stroke="#06848B" stroke-width="2"/>
</svg>
