<svg width="72" height="72" viewBox="0 0 72 72" fill="none" xmlns="http://www.w3.org/2000/svg">
<g clip-path="url(#clip0)">
<path d="M21.9421 41.6752C22.605 41.6752 23.2282 41.9333 23.6969 42.4021C23.962 42.6672 24.3094 42.7999 24.657 42.7997C25.0044 42.7997 25.352 42.6672 25.6171 42.4021C26.1475 41.8719 26.1475 41.0123 25.6171 40.4819C24.6355 39.5003 23.3304 38.9597 21.9423 38.9597C20.5541 38.9597 19.249 39.5003 18.2674 40.4819C17.737 41.0121 17.737 41.8717 18.2674 42.4021C18.7978 42.9324 19.6574 42.9322 20.1874 42.4021C20.656 41.9333 21.2792 41.6752 21.9421 41.6752Z" fill="white"/>
<path d="M46.383 40.4819C45.8526 41.0121 45.8526 41.8717 46.383 42.4021C46.9132 42.9322 47.7728 42.9322 48.303 42.4021C49.2705 41.4343 50.8452 41.4345 51.8127 42.4021C52.0778 42.6672 52.4252 42.7997 52.7728 42.7997C53.1204 42.7997 53.4678 42.6672 53.7329 42.4021C54.2632 41.8719 54.2632 41.0123 53.7329 40.4819C51.7068 38.4557 48.4096 38.4555 46.383 40.4819Z" fill="white"/>
<path d="M50.0505 53.8757C42.303 61.6232 29.697 61.6232 21.9494 53.8757C21.4192 53.3455 20.5596 53.3455 20.0294 53.8757C19.499 54.4059 19.499 55.2656 20.0294 55.7958C24.4325 60.1989 30.2162 62.4005 35.9999 62.4005C41.7839 62.4005 47.5676 60.1989 51.9707 55.7958C52.5011 55.2656 52.5011 54.406 51.9707 53.8757C51.4405 53.3455 50.5807 53.3455 50.0505 53.8757Z" fill="white"/>
<path d="M68.0358 43.138C68.0358 39.4499 65.3696 36.3747 61.864 35.7333V13.0198C61.864 10.0732 60.3981 7.34142 57.9429 5.71232C55.6366 4.18234 52.7738 3.8351 50.185 4.74732L41.6608 1.85401C35.1108 -0.369437 28.2161 -0.597535 21.7223 1.19415C13.2209 3.53979 8.34702 8.4999 7.59467 15.5506C6.92887 16.4287 6.39987 17.4149 6.04041 18.479L5.3792 20.436C5.02432 21.4867 5.41552 22.5909 6.35303 23.1835C7.29037 23.7762 8.45581 23.6564 9.25279 22.885C9.52501 22.6214 9.82269 22.3994 10.136 22.2138V35.7333C6.63034 36.3747 3.96411 39.4498 3.96411 43.138C3.96411 46.9738 6.84775 50.1466 10.5606 50.6079C11.493 55.7564 13.9432 60.5055 17.6897 64.306C22.5811 69.2678 29.0836 72.0002 36 72.0002C36.0008 72.0002 36.0017 72.0002 36.0025 72.0002C42.9101 71.9995 49.4041 69.3092 54.2885 64.4249C58.1039 60.6096 60.5804 55.812 61.4821 50.6025C65.1743 50.122 68.0358 46.9588 68.0358 43.138ZM56.4415 7.97514C58.162 9.11648 59.1485 10.9552 59.1485 13.0198V30.7871C54.9343 30.1322 51.6985 26.4792 51.6985 22.0843L51.5862 7.1561C53.2441 6.71908 54.973 7.00081 56.4415 7.97514ZM8.34922 20.129L8.61313 19.3481C9.30438 17.3022 10.8395 15.6412 12.8246 14.7913C14.8096 13.9413 17.0711 13.9766 19.0288 14.8885C23.1403 16.8034 28.1107 15.7681 31.1157 12.3711L31.4521 11.9908C31.949 11.4292 31.8964 10.5711 31.3348 10.0744C30.7731 9.5776 29.915 9.63004 29.4182 10.1916L29.0819 10.572C26.8674 13.0753 23.2048 13.838 20.1752 12.427C17.5186 11.1896 14.4497 11.1415 11.7558 12.2951C11.5105 12.4001 11.2721 12.5174 11.0373 12.6401C12.6155 8.4327 16.4352 5.4698 22.4448 3.81168C28.4122 2.1651 34.7551 2.37741 40.7883 4.4252L48.8707 7.16865L48.9766 14.1842C45.3778 19.0773 40.1292 22.3896 34.148 23.5286C28.0235 24.6947 21.7756 23.4607 16.5548 20.0538C14.0038 18.3894 10.7875 18.4605 8.34922 20.129ZM6.67956 43.138C6.67956 40.955 8.14064 39.1078 10.136 38.5201V45.8793C10.136 46.515 10.1589 47.1472 10.2035 47.7753C8.17391 47.2097 6.67956 45.3457 6.67956 43.138ZM52.3685 62.5046C47.997 66.8762 42.1848 69.2839 36.0023 69.2846C36.0013 69.2846 36.0012 69.2846 36 69.2846C29.8167 69.2846 24.0002 66.8391 19.6234 62.3996C15.2565 57.9696 12.8514 52.1026 12.8514 45.8791V21.5736C13.6204 21.631 14.3835 21.8798 15.0705 22.328C20.8826 26.1206 27.8378 27.4945 34.6557 26.1962C40.1899 25.1422 45.1616 22.4178 48.9829 18.3998V22.0841C48.9829 27.9785 53.4323 32.8504 59.1483 33.5246V46.1359C59.1485 52.3193 56.7408 58.1326 52.3685 62.5046ZM61.8115 47.7709C61.8451 47.2289 61.864 46.6839 61.864 46.136V38.5201C63.8593 39.1078 65.3204 40.955 65.3204 43.138C65.3204 45.3401 63.8337 47.2003 61.8115 47.7709Z" fill="white"/>
</g>
<defs>
<clipPath id="clip0">
<rect width="72" height="72" fill="white"/>
</clipPath>
</defs>
</svg>
